<svg width="58" height="61" viewBox="0 0 58 61" fill="none" xmlns="http://www.w3.org/2000/svg">
<g filter="url(#filter0_d_16_36)">
<path d="M23.9852 25.7195C24.4609 25.375 24.6906 24.8062 24.6906 24.0242C24.707 23.6523 24.6305 23.2859 24.4664 22.9523C24.3188 22.6844 24.1 22.4602 23.832 22.3016C23.5542 22.1331 23.2456 22.0215 22.9242 21.9734C22.5742 21.9078 22.2188 21.875 21.8687 21.8805H18.0242V26.2391H22.1859C22.9023 26.2445 23.5094 26.0695 23.9852 25.7195ZM24.6305 29.657C24.0945 29.2469 23.3781 29.0445 22.4867 29.0445H18.0133V34.1852H22.3992C22.8094 34.1852 23.1867 34.1469 23.5531 34.0703C23.8998 34.0025 24.2303 33.8689 24.5266 33.6766C24.8055 33.4961 25.0297 33.25 25.1992 32.9328C25.3633 32.6156 25.4453 32.2109 25.4453 31.7242C25.4453 30.7562 25.1719 30.0727 24.6305 29.657ZM29 3.5C15.4703 3.5 4.5 14.4703 4.5 28C4.5 41.5297 15.4703 52.5 29 52.5C42.5297 52.5 53.5 41.5297 53.5 28C53.5 14.4703 42.5297 3.5 29 3.5ZM33.7305 19.1898H41.2992V21.0328H33.7305V19.1898ZM29 34.3875C28.646 35.0595 28.1405 35.6399 27.5234 36.0828C26.8781 36.5312 26.1617 36.8594 25.4016 37.0508C24.6063 37.2639 23.7858 37.3688 22.9625 37.3625H13.9062V18.7086H22.7109C23.6023 18.7086 24.4117 18.7906 25.15 18.9437C25.8828 19.0969 26.5063 19.3594 27.0312 19.7148C27.5508 20.0703 27.9609 20.5461 28.2508 21.1367C28.5352 21.7219 28.6828 22.4547 28.6828 23.3242C28.6828 24.2648 28.4695 25.0414 28.043 25.6703C27.6109 26.2992 26.9875 26.8078 26.1398 27.207C27.2938 27.5352 28.1414 28.1203 28.6992 28.9406C29.268 29.7719 29.5469 30.7672 29.5469 31.9375C29.5469 32.8891 29.3664 33.7039 29 34.3875ZM44.2469 31.5H34.4906C34.4906 32.5609 34.857 33.5781 35.4094 34.125C35.9672 34.6664 36.7656 34.9398 37.8102 34.9398C38.5648 34.9398 39.2047 34.7484 39.7516 34.3711C40.293 33.9937 40.6211 33.5945 40.7414 33.1789H44.0117C43.4867 34.8031 42.6883 35.9625 41.6055 36.6625C40.5336 37.3625 39.2211 37.7125 37.6953 37.7125C36.6289 37.7125 35.6719 37.5375 34.8133 37.2039C33.9875 36.8812 33.2438 36.3891 32.6313 35.7547C32.0273 35.1032 31.5605 34.337 31.2586 33.5016C30.925 32.5773 30.7609 31.6039 30.7719 30.625C30.7719 29.6133 30.9414 28.6727 31.2695 27.7977C31.8984 26.0969 33.2055 24.7352 34.8734 24.0297C35.7648 23.6578 36.7219 23.4719 37.6898 23.4828C38.8383 23.4828 39.8336 23.7016 40.6977 24.15C41.5295 24.5782 42.2517 25.1919 42.8086 25.9438C43.3609 26.693 43.7492 27.5461 43.9953 28.5086C44.2305 29.4547 44.3125 30.45 44.2469 31.5ZM37.575 26.2719C36.9844 26.2719 36.4867 26.3758 36.1039 26.5781C35.7211 26.7805 35.4039 27.032 35.1633 27.3219C34.9341 27.6017 34.7647 27.9256 34.6656 28.2734C34.5781 28.5633 34.518 28.8586 34.4961 29.1594H40.5391C40.4516 28.2133 40.1234 27.5133 39.6859 27.0211C39.2266 26.5344 38.4883 26.2719 37.575 26.2719Z" fill="white"/>
</g>
<defs>
<filter id="filter0_d_16_36" x="-3" y="0" width="64" height="64" filterUnits="userSpaceOnUse" color-interpolation-filters="sRGB">
<feFlood flood-opacity="0" result="BackgroundImageFix"/>
<feColorMatrix in="SourceAlpha" type="matrix" values="0 0 0 0 0 0 0 0 0 0 0 0 0 0 0 0 0 0 127 0" result="hardAlpha"/>
<feOffset dy="4"/>
<feGaussianBlur stdDeviation="2"/>
<feComposite in2="hardAlpha" operator="out"/>
<feColorMatrix type="matrix" values="0 0 0 0 0 0 0 0 0 0 0 0 0 0 0 0 0 0 0.25 0"/>
<feBlend mode="normal" in2="BackgroundImageFix" result="effect1_dropShadow_16_36"/>
<feBlend mode="normal" in="SourceGraphic" in2="effect1_dropShadow_16_36" result="shape"/>
</filter>
</defs>
</svg>
