<svg width="58" height="57" viewBox="0 0 58 57" fill="none" xmlns="http://www.w3.org/2000/svg">
<g filter="url(#filter0_d_16_38)">
<path fill-rule="evenodd" clip-rule="evenodd" d="M29 0C15.1875 0 4 11.1875 4 25C4 36.0625 11.1562 45.4062 21.0938 48.7188C22.3438 48.9375 22.8125 48.1875 22.8125 47.5312C22.8125 46.9375 22.7812 44.9688 22.7812 42.875C16.5 44.0312 14.875 41.3438 14.375 39.9375C14.0938 39.2188 12.875 37 11.8125 36.4062C10.9375 35.9375 9.6875 34.7812 11.7812 34.75C13.75 34.7188 15.1562 36.5625 15.625 37.3125C17.875 41.0938 21.4687 40.0312 22.9062 39.375C23.125 37.75 23.7812 36.6562 24.5 36.0312C18.9375 35.4062 13.125 33.25 13.125 23.6875C13.125 20.9688 14.0938 18.7188 15.6875 16.9688C15.4375 16.3438 14.5625 13.7812 15.9375 10.3438C15.9375 10.3438 18.0312 9.6875 22.8125 12.9062C24.8125 12.3438 26.9375 12.0625 29.0625 12.0625C31.1875 12.0625 33.3125 12.3438 35.3125 12.9062C40.0938 9.65625 42.1875 10.3438 42.1875 10.3438C43.5625 13.7812 42.6875 16.3438 42.4375 16.9688C44.0312 18.7188 45 20.9375 45 23.6875C45 33.2812 39.1562 35.4062 33.5937 36.0312C34.5 36.8125 35.2812 38.3125 35.2812 40.6562C35.2812 44 35.25 46.6875 35.25 47.5312C35.25 48.1875 35.7187 48.9688 36.9688 48.7188C41.9316 47.0432 46.2441 43.8535 49.2993 39.5987C52.3545 35.3439 53.9985 30.2381 54 25C54 11.1875 42.8125 0 29 0Z" fill="white"/>
</g>
<defs>
<filter id="filter0_d_16_38" x="0" y="0" width="58" height="58" filterUnits="userSpaceOnUse" color-interpolation-filters="sRGB">
<feFlood flood-opacity="0" result="BackgroundImageFix"/>
<feColorMatrix in="SourceAlpha" type="matrix" values="0 0 0 0 0 0 0 0 0 0 0 0 0 0 0 0 0 0 127 0" result="hardAlpha"/>
<feOffset dy="4"/>
<feGaussianBlur stdDeviation="2"/>
<feComposite in2="hardAlpha" operator="out"/>
<feColorMatrix type="matrix" values="0 0 0 0 0 0 0 0 0 0 0 0 0 0 0 0 0 0 0.25 0"/>
<feBlend mode="normal" in2="BackgroundImageFix" result="effect1_dropShadow_16_38"/>
<feBlend mode="normal" in="SourceGraphic" in2="effect1_dropShadow_16_38" result="shape"/>
</filter>
</defs>
</svg>
