<svg width="40" height="39" viewBox="0 0 40 39" fill="none" xmlns="http://www.w3.org/2000/svg">
<g filter="url(#filter0_d_29_390)">
<path fill-rule="evenodd" clip-rule="evenodd" d="M1.66669 3.73009C1.66669 2.91764 1.98943 2.13847 2.56392 1.56398C3.1384 0.989495 3.91757 0.666752 4.73002 0.666752H35.2667C35.6693 0.666095 36.0681 0.744857 36.4403 0.89853C36.8124 1.0522 37.1506 1.27777 37.4354 1.56231C37.7203 1.84686 37.9462 2.18479 38.1003 2.55677C38.2544 2.92875 38.3336 3.32746 38.3334 3.73009V34.2668C38.3338 34.6695 38.2548 35.0683 38.101 35.4404C37.9471 35.8126 37.7214 36.1508 37.4367 36.4356C37.152 36.7204 36.814 36.9463 36.4419 37.1004C36.0699 37.2545 35.6711 37.3336 35.2684 37.3334H4.73002C4.3276 37.3334 3.92912 37.2541 3.55735 37.1001C3.18558 36.946 2.84781 36.7202 2.56333 36.4356C2.27885 36.151 2.05324 35.8131 1.89939 35.4412C1.74554 35.0694 1.66647 34.6708 1.66669 34.2684V3.73009ZM16.18 14.6468H21.145V17.1401C21.8617 15.7068 23.695 14.4168 26.45 14.4168C31.7317 14.4168 32.9834 17.2718 32.9834 22.5101V32.2134H27.6384V23.7034C27.6384 20.7201 26.9217 19.0368 25.1017 19.0368C22.5767 19.0368 21.5267 20.8518 21.5267 23.7034V32.2134H16.18V14.6468ZM7.01335 31.9851H12.36V14.4168H7.01335V31.9834V31.9851ZM13.125 8.68675C13.1351 9.14454 13.0536 9.59973 12.8854 10.0256C12.7172 10.4515 12.4656 10.8395 12.1454 11.1668C11.8252 11.4941 11.4429 11.7542 11.0208 11.9318C10.5987 12.1093 10.1454 12.2008 9.68752 12.2008C9.22962 12.2008 8.77634 12.1093 8.35426 11.9318C7.93219 11.7542 7.54983 11.4941 7.22963 11.1668C6.90944 10.8395 6.65784 10.4515 6.48962 10.0256C6.3214 9.59973 6.23994 9.14454 6.25002 8.68675C6.26981 7.78818 6.64066 6.93307 7.28316 6.30456C7.92566 5.67605 8.78873 5.32411 9.68752 5.32411C10.5863 5.32411 11.4494 5.67605 12.0919 6.30456C12.7344 6.93307 13.1052 7.78818 13.125 8.68675V8.68675Z" fill="white"/>
</g>
<defs>
<filter id="filter0_d_29_390" x="-2.33331" y="0.666748" width="44.6667" height="44.6667" filterUnits="userSpaceOnUse" color-interpolation-filters="sRGB">
<feFlood flood-opacity="0" result="BackgroundImageFix"/>
<feColorMatrix in="SourceAlpha" type="matrix" values="0 0 0 0 0 0 0 0 0 0 0 0 0 0 0 0 0 0 127 0" result="hardAlpha"/>
<feOffset dy="4"/>
<feGaussianBlur stdDeviation="2"/>
<feComposite in2="hardAlpha" operator="out"/>
<feColorMatrix type="matrix" values="0 0 0 0 0 0 0 0 0 0 0 0 0 0 0 0 0 0 0.25 0"/>
<feBlend mode="normal" in2="BackgroundImageFix" result="effect1_dropShadow_29_390"/>
<feBlend mode="normal" in="SourceGraphic" in2="effect1_dropShadow_29_390" result="shape"/>
</filter>
</defs>
</svg>
