<svg width="48" height="42" viewBox="0 0 48 42" fill="none" xmlns="http://www.w3.org/2000/svg">
<g filter="url(#filter0_d_29_388)">
<path d="M4.35712 10.0786L23.3821 19.9732C23.573 20.0725 23.7849 20.1243 24 20.1243C24.2151 20.1243 24.427 20.0725 24.6178 19.9732L43.6428 10.0804V27.2679C43.6429 28.7503 43.0758 30.1765 42.0577 31.254C41.0396 32.3315 39.6478 32.9786 38.1678 33.0625L37.8393 33.0714H10.1607C8.6783 33.0715 7.25207 32.5044 6.17456 31.4863C5.09706 30.4682 4.44997 29.0765 4.36605 27.5964L4.35712 27.2679V10.0786ZM10.1607 0.928589H37.8393C39.3216 0.928492 40.7479 1.49565 41.8254 2.51372C42.9029 3.53178 43.55 4.92358 43.6339 6.40359L43.6428 6.73216V7.06073L24 17.275L4.35712 7.06073V6.73216C4.35702 5.24977 4.92418 3.82354 5.94224 2.74603C6.96031 1.66853 8.35211 1.02144 9.83212 0.937518L10.1607 0.928589H37.8393H10.1607Z" fill="white"/>
</g>
<defs>
<filter id="filter0_d_29_388" x="0.357117" y="0.928589" width="47.2857" height="40.1429" filterUnits="userSpaceOnUse" color-interpolation-filters="sRGB">
<feFlood flood-opacity="0" result="BackgroundImageFix"/>
<feColorMatrix in="SourceAlpha" type="matrix" values="0 0 0 0 0 0 0 0 0 0 0 0 0 0 0 0 0 0 127 0" result="hardAlpha"/>
<feOffset dy="4"/>
<feGaussianBlur stdDeviation="2"/>
<feComposite in2="hardAlpha" operator="out"/>
<feColorMatrix type="matrix" values="0 0 0 0 0 0 0 0 0 0 0 0 0 0 0 0 0 0 0.25 0"/>
<feBlend mode="normal" in2="BackgroundImageFix" result="effect1_dropShadow_29_388"/>
<feBlend mode="normal" in="SourceGraphic" in2="effect1_dropShadow_29_388" result="shape"/>
</filter>
</defs>
</svg>
