<svg width="602" height="416" viewBox="0 0 602 416" fill="none" xmlns="http://www.w3.org/2000/svg">
<path d="M0 30C0 13.4314 13.4315 0 30 0H572C588.569 0 602 13.4315 602 30V386C602 402.569 588.569 416 572 416H30C13.4315 416 0 402.569 0 386V30Z" fill="#EB3A4A"/>
<rect y="134" width="602" height="230" fill="white"/>
<path d="M176.999 79V25.8H188.019V47.232H212.491V25.8H223.511V79H212.491V57.188H188.019V79H176.999ZM233.183 79V25.8H274.071V35.376H244.203V47.536H263.887V56.808H244.203V69.424H274.375V79H233.183ZM282.167 79V25.8H293.187V69.272H322.295V79H282.167ZM329.89 79V25.8H340.91V69.272H370.018V79H329.89ZM399.821 79.836C395.869 79.836 392.196 79.152 388.801 77.784C385.406 76.3653 382.417 74.4147 379.833 71.932C377.3 69.3987 375.298 66.4853 373.829 63.192C372.41 59.848 371.701 56.2507 371.701 52.4C371.701 48.5493 372.41 44.9773 373.829 41.684C375.298 38.34 377.3 35.4267 379.833 32.944C382.417 30.4107 385.406 28.46 388.801 27.092C392.196 25.6733 395.869 24.964 399.821 24.964C403.773 24.964 407.446 25.6733 410.841 27.092C414.286 28.46 417.276 30.4107 419.809 32.944C422.393 35.4267 424.394 38.34 425.813 41.684C427.232 44.9773 427.941 48.5493 427.941 52.4C427.941 56.2507 427.232 59.848 425.813 63.192C424.394 66.4853 422.393 69.3987 419.809 71.932C417.276 74.4147 414.286 76.3653 410.841 77.784C407.446 79.152 403.773 79.836 399.821 79.836ZM399.821 69.728C402.253 69.728 404.482 69.2973 406.509 68.436C408.536 67.524 410.309 66.308 411.829 64.788C413.349 63.2173 414.54 61.368 415.401 59.24C416.262 57.112 416.693 54.832 416.693 52.4C416.693 49.9173 416.262 47.6373 415.401 45.56C414.54 43.432 413.349 41.608 411.829 40.088C410.309 38.5173 408.536 37.3013 406.509 36.44C404.482 35.528 402.253 35.072 399.821 35.072C397.44 35.072 395.236 35.528 393.209 36.44C391.182 37.3013 389.409 38.5173 387.889 40.088C386.369 41.608 385.178 43.432 384.317 45.56C383.456 47.6373 383.025 49.892 383.025 52.324C383.025 54.8067 383.456 57.112 384.317 59.24C385.178 61.368 386.369 63.2173 387.889 64.788C389.409 66.308 391.182 67.524 393.209 68.436C395.236 69.2973 397.44 69.728 399.821 69.728ZM217.543 117V99.694H220.943V101.36C222.235 100.023 223.856 99.354 225.805 99.354C226.984 99.354 228.026 99.6147 228.933 100.136C229.862 100.657 230.599 101.36 231.143 102.244C231.868 101.292 232.718 100.578 233.693 100.102C234.668 99.6033 235.767 99.354 236.991 99.354C238.283 99.354 239.405 99.6373 240.357 100.204C241.332 100.771 242.091 101.564 242.635 102.584C243.202 103.604 243.485 104.783 243.485 106.12V117H240.085V106.698C240.085 105.338 239.722 104.273 238.997 103.502C238.294 102.709 237.331 102.312 236.107 102.312C235.268 102.312 234.509 102.505 233.829 102.89C233.149 103.275 232.56 103.865 232.061 104.658C232.106 104.885 232.14 105.123 232.163 105.372C232.186 105.621 232.197 105.871 232.197 106.12V117H228.831V106.698C228.831 105.338 228.468 104.273 227.743 103.502C227.04 102.709 226.077 102.312 224.853 102.312C224.037 102.312 223.3 102.493 222.643 102.856C221.986 103.196 221.419 103.717 220.943 104.42V117H217.543ZM248.217 124.31C247.854 124.31 247.514 124.287 247.197 124.242C246.879 124.219 246.619 124.174 246.415 124.106V121.114C246.823 121.205 247.321 121.25 247.911 121.25C249.497 121.25 250.642 120.4 251.345 118.7L252.093 117.034L245.157 99.694H248.931L253.963 112.886L259.539 99.694H263.211L254.847 119.142C254.303 120.366 253.725 121.352 253.113 122.1C252.501 122.871 251.798 123.426 251.005 123.766C250.211 124.129 249.282 124.31 248.217 124.31ZM272.428 117V99.694H275.828V101.462C277.165 100.057 278.899 99.354 281.03 99.354C282.367 99.354 283.535 99.6373 284.532 100.204C285.552 100.771 286.345 101.564 286.912 102.584C287.501 103.604 287.796 104.783 287.796 106.12V117H284.396V106.698C284.396 105.338 284.011 104.273 283.24 103.502C282.492 102.709 281.438 102.312 280.078 102.312C279.171 102.312 278.355 102.505 277.63 102.89C276.905 103.275 276.304 103.831 275.828 104.556V117H272.428ZM297.193 117.306C295.946 117.306 294.847 117.091 293.895 116.66C292.943 116.207 292.195 115.583 291.651 114.79C291.107 113.997 290.835 113.079 290.835 112.036C290.835 110.404 291.458 109.123 292.705 108.194C293.952 107.242 295.663 106.766 297.839 106.766C299.539 106.766 301.114 107.095 302.565 107.752V105.916C302.565 104.669 302.202 103.74 301.477 103.128C300.774 102.516 299.732 102.21 298.349 102.21C297.556 102.21 296.728 102.335 295.867 102.584C295.006 102.811 294.042 103.173 292.977 103.672L291.719 101.122C293.034 100.51 294.258 100.068 295.391 99.796C296.524 99.5013 297.669 99.354 298.825 99.354C301.069 99.354 302.803 99.8867 304.027 100.952C305.274 102.017 305.897 103.536 305.897 105.508V117H302.565V115.504C301.794 116.116 300.967 116.569 300.083 116.864C299.199 117.159 298.236 117.306 297.193 117.306ZM294.099 111.968C294.099 112.807 294.45 113.487 295.153 114.008C295.878 114.507 296.819 114.756 297.975 114.756C298.882 114.756 299.709 114.631 300.457 114.382C301.228 114.11 301.93 113.691 302.565 113.124V110.2C301.908 109.815 301.216 109.543 300.491 109.384C299.788 109.203 298.995 109.112 298.111 109.112C296.864 109.112 295.878 109.373 295.153 109.894C294.45 110.393 294.099 111.084 294.099 111.968ZM309.815 117V99.694H313.215V101.36C314.507 100.023 316.127 99.354 318.077 99.354C319.255 99.354 320.298 99.6147 321.205 100.136C322.134 100.657 322.871 101.36 323.415 102.244C324.14 101.292 324.99 100.578 325.965 100.102C326.939 99.6033 328.039 99.354 329.263 99.354C330.555 99.354 331.677 99.6373 332.629 100.204C333.603 100.771 334.363 101.564 334.907 102.584C335.473 103.604 335.757 104.783 335.757 106.12V117H332.357V106.698C332.357 105.338 331.994 104.273 331.269 103.502C330.566 102.709 329.603 102.312 328.379 102.312C327.54 102.312 326.781 102.505 326.101 102.89C325.421 103.275 324.831 103.865 324.333 104.658C324.378 104.885 324.412 105.123 324.435 105.372C324.457 105.621 324.469 105.871 324.469 106.12V117H321.103V106.698C321.103 105.338 320.74 104.273 320.015 103.502C319.312 102.709 318.349 102.312 317.125 102.312C316.309 102.312 315.572 102.493 314.915 102.856C314.257 103.196 313.691 103.717 313.215 104.42V117H309.815ZM347.96 117.306C346.26 117.306 344.719 116.909 343.336 116.116C341.976 115.323 340.888 114.246 340.072 112.886C339.279 111.526 338.882 110.007 338.882 108.33C338.882 106.675 339.268 105.179 340.038 103.842C340.809 102.482 341.852 101.405 343.166 100.612C344.481 99.796 345.943 99.388 347.552 99.388C349.162 99.388 350.59 99.796 351.836 100.612C353.083 101.405 354.069 102.493 354.794 103.876C355.542 105.236 355.916 106.777 355.916 108.5V109.452H342.282C342.464 110.404 342.815 111.254 343.336 112.002C343.88 112.75 344.56 113.339 345.376 113.77C346.215 114.201 347.122 114.416 348.096 114.416C348.935 114.416 349.74 114.291 350.51 114.042C351.304 113.77 351.961 113.385 352.482 112.886L354.658 115.028C353.638 115.799 352.584 116.377 351.496 116.762C350.431 117.125 349.252 117.306 347.96 117.306ZM342.316 106.902H352.55C352.414 105.995 352.097 105.202 351.598 104.522C351.122 103.819 350.522 103.275 349.796 102.89C349.094 102.482 348.323 102.278 347.484 102.278C346.623 102.278 345.83 102.471 345.104 102.856C344.379 103.241 343.767 103.785 343.268 104.488C342.792 105.168 342.475 105.973 342.316 106.902ZM366.26 117V99.694H369.66V117H366.26ZM367.96 96.906C367.393 96.906 366.906 96.702 366.498 96.294C366.09 95.8633 365.886 95.3647 365.886 94.798C365.886 94.2087 366.09 93.7213 366.498 93.336C366.906 92.928 367.393 92.724 367.96 92.724C368.549 92.724 369.048 92.928 369.456 93.336C369.864 93.7213 370.068 94.2087 370.068 94.798C370.068 95.3647 369.864 95.8633 369.456 96.294C369.048 96.702 368.549 96.906 367.96 96.906ZM379.614 117.34C378.118 117.34 376.713 117.125 375.398 116.694C374.106 116.241 372.984 115.606 372.032 114.79L373.902 112.546C374.786 113.249 375.693 113.793 376.622 114.178C377.574 114.541 378.538 114.722 379.512 114.722C380.736 114.722 381.734 114.484 382.504 114.008C383.275 113.532 383.66 112.909 383.66 112.138C383.66 111.503 383.434 111.005 382.98 110.642C382.527 110.279 381.824 110.03 380.872 109.894L377.744 109.452C376.022 109.203 374.73 108.67 373.868 107.854C373.007 107.038 372.576 105.95 372.576 104.59C372.576 103.547 372.86 102.641 373.426 101.87C373.993 101.077 374.786 100.465 375.806 100.034C376.826 99.5807 378.016 99.354 379.376 99.354C380.623 99.354 381.824 99.5353 382.98 99.898C384.136 100.261 385.247 100.827 386.312 101.598L384.578 103.842C383.626 103.207 382.697 102.743 381.79 102.448C380.906 102.153 380.011 102.006 379.104 102.006C378.062 102.006 377.223 102.233 376.588 102.686C375.954 103.117 375.636 103.683 375.636 104.386C375.636 105.021 375.852 105.519 376.282 105.882C376.736 106.222 377.472 106.46 378.492 106.596L381.62 107.038C383.343 107.287 384.646 107.82 385.53 108.636C386.414 109.429 386.856 110.506 386.856 111.866C386.856 112.909 386.539 113.849 385.904 114.688C385.27 115.504 384.408 116.15 383.32 116.626C382.232 117.102 380.997 117.34 379.614 117.34Z" fill="white"/>
<path d="M30 0H79C79 0 74.0331 4.02804 67.0795 14.8224C62.7978 21.469 59.4577 36.3009 57.523 46.7179C56.4173 52.6716 50.465 56.5544 44.6315 54.9298L0 42.5V30C0 13.4315 13.4315 0 30 0Z" fill="#BA2D2D"/>
<path d="M30 0H75.5C75.5 0 70.5 1.00001 63.5 11.5C59.1272 18.0592 55.73 32.8133 53.7959 42.9642C52.7132 48.6466 47.202 52.485 41.5426 51.2878L0 42.5V30C0 13.4315 13.4315 0 30 0Z" fill="#E1E1E1"/>
<path d="M148.309 272.6C151.175 272.6 153.609 272.133 155.609 271.2C157.675 270.2 159.342 268.9 160.609 267.3C161.942 265.633 162.909 263.767 163.509 261.7C164.175 259.567 164.509 257.333 164.509 255V253.8H172.909V255C172.909 258.533 172.375 261.867 171.309 265C170.242 268.067 168.675 270.767 166.609 273.1C164.542 275.367 161.975 277.167 158.909 278.5C155.842 279.767 152.309 280.4 148.309 280.4C140.575 280.4 134.542 277.967 130.209 273.1C125.875 268.233 123.709 261.133 123.709 251.8V236.2C123.709 227.133 125.875 220.1 130.209 215.1C134.542 210.1 140.575 207.6 148.309 207.6C152.309 207.6 155.842 208.267 158.909 209.6C161.975 210.867 164.542 212.667 166.609 215C168.675 217.267 170.242 219.967 171.309 223.1C172.375 226.167 172.909 229.467 172.909 233V234.2H164.509V233C164.442 230.733 164.075 228.533 163.409 226.4C162.809 224.267 161.842 222.4 160.509 220.8C159.242 219.133 157.609 217.833 155.609 216.9C153.609 215.9 151.175 215.4 148.309 215.4C142.909 215.4 138.842 217.367 136.109 221.3C133.442 225.233 132.109 230.4 132.109 236.8V251.2C132.109 258.067 133.442 263.367 136.109 267.1C138.842 270.767 142.909 272.6 148.309 272.6ZM223.239 270.6H222.039C220.439 273.933 218.206 276.4 215.339 278C212.539 279.6 209.572 280.4 206.439 280.4C203.172 280.4 200.139 279.867 197.339 278.8C194.539 277.667 192.072 276.033 189.939 273.9C187.872 271.7 186.239 269.033 185.039 265.9C183.839 262.767 183.239 259.133 183.239 255V253.4C183.239 249.333 183.839 245.733 185.039 242.6C186.239 239.467 187.872 236.833 189.939 234.7C192.072 232.5 194.539 230.833 197.339 229.7C200.139 228.567 203.106 228 206.239 228C209.639 228 212.706 228.767 215.439 230.3C218.239 231.767 220.439 234.067 222.039 237.2H223.239V229.4H231.039V268.8C231.039 270.8 231.939 271.8 233.739 271.8H236.239V279H230.939C228.672 279 226.806 278.267 225.339 276.8C223.939 275.333 223.239 273.467 223.239 271.2V270.6ZM207.239 273C209.572 273 211.706 272.567 213.639 271.7C215.639 270.833 217.339 269.6 218.739 268C220.139 266.4 221.239 264.5 222.039 262.3C222.839 260.033 223.239 257.533 223.239 254.8V253.6C223.239 250.933 222.839 248.5 222.039 246.3C221.239 244.033 220.106 242.1 218.639 240.5C217.239 238.9 215.539 237.667 213.539 236.8C211.606 235.867 209.506 235.4 207.239 235.4C204.906 235.4 202.772 235.833 200.839 236.7C198.906 237.567 197.206 238.8 195.739 240.4C194.339 241.933 193.239 243.833 192.439 246.1C191.639 248.3 191.239 250.733 191.239 253.4V255C191.239 260.667 192.706 265.1 195.639 268.3C198.639 271.433 202.506 273 207.239 273ZM296.17 279H288.37V243.4C288.37 241.067 287.836 239.167 286.77 237.7C285.703 236.167 284.003 235.4 281.67 235.4C279.47 235.4 277.67 236.233 276.27 237.9C274.936 239.5 274.27 242 274.27 245.4V279H266.47V243C266.47 240.8 265.87 239 264.67 237.6C263.47 236.133 261.87 235.4 259.87 235.4C257.47 235.4 255.603 236.267 254.27 238C253.003 239.733 252.37 242 252.37 244.8V279H244.57V229.4H252.37V234.8H253.57C254.436 232.467 255.703 230.767 257.37 229.7C259.036 228.567 261.003 228 263.27 228C265.67 228 267.636 228.633 269.17 229.9C270.77 231.167 271.87 232.8 272.47 234.8H273.67C275.936 230.267 279.536 228 284.47 228C288.203 228 291.07 229.2 293.07 231.6C295.136 233.933 296.17 237 296.17 240.8V279ZM325.1 214.6C325.1 212.667 325.767 211.033 327.1 209.7C328.5 208.3 330.167 207.6 332.1 207.6C334.033 207.6 335.667 208.3 337 209.7C338.4 211.033 339.1 212.667 339.1 214.6C339.1 216.533 338.4 218.2 337 219.6C335.667 220.933 334.033 221.6 332.1 221.6C330.167 221.6 328.5 220.933 327.1 219.6C325.767 218.2 325.1 216.533 325.1 214.6ZM310.9 271.8H328.3V236.6H312.7V229.4H336.1V271.8H352.3V279H310.9V271.8ZM370.93 271.8H388.93V216.2H371.53V209H396.73V271.8H414.73V279H370.93V271.8ZM468.161 270.6H466.961C465.361 273.933 463.128 276.4 460.261 278C457.461 279.6 454.494 280.4 451.361 280.4C448.094 280.4 445.061 279.867 442.261 278.8C439.461 277.667 436.994 276.033 434.861 273.9C432.794 271.7 431.161 269.033 429.961 265.9C428.761 262.767 428.161 259.133 428.161 255V253.4C428.161 249.333 428.761 245.733 429.961 242.6C431.161 239.467 432.794 236.833 434.861 234.7C436.994 232.5 439.461 230.833 442.261 229.7C445.061 228.567 448.028 228 451.161 228C454.561 228 457.628 228.767 460.361 230.3C463.161 231.767 465.361 234.067 466.961 237.2H468.161V229.4H475.961V268.8C475.961 270.8 476.861 271.8 478.661 271.8H481.161V279H475.861C473.594 279 471.728 278.267 470.261 276.8C468.861 275.333 468.161 273.467 468.161 271.2V270.6ZM452.161 273C454.494 273 456.628 272.567 458.561 271.7C460.561 270.833 462.261 269.6 463.661 268C465.061 266.4 466.161 264.5 466.961 262.3C467.761 260.033 468.161 257.533 468.161 254.8V253.6C468.161 250.933 467.761 248.5 466.961 246.3C466.161 244.033 465.028 242.1 463.561 240.5C462.161 238.9 460.461 237.667 458.461 236.8C456.528 235.867 454.428 235.4 452.161 235.4C449.828 235.4 447.694 235.833 445.761 236.7C443.828 237.567 442.128 238.8 440.661 240.4C439.261 241.933 438.161 243.833 437.361 246.1C436.561 248.3 436.161 250.733 436.161 253.4V255C436.161 260.667 437.628 265.1 440.561 268.3C443.561 271.433 447.428 273 452.161 273Z" fill="#3D3D3D"/>
</svg>
